HIERARCHY
ROOT Hips
{
  OFFSET 76.347 92.6806 -49.6304
  CHANNELS 6 Xposition Yposition Zposition Zrotation Xrotation Yrotation
  JOINT RightUpLeg
  {
    OFFSET -9.2536 -1.56971 -0.009835
    CHANNELS 3 Zrotation Xrotation Yrotation
    JOINT RightLeg
    {
      OFFSET 0.003613 -41.8721 0.033096
      CHANNELS 3 Zrotation Xrotation Yrotation
      JOINT RightFoot
      {
        OFFSET 0.190023 -41.7536 -0.162077
        CHANNELS 3 Zrotation Xrotation Yrotation
        End Site
        {
          OFFSET 0 -7.69 17.5
        }
      }
    }
  }
  JOINT LeftUpLeg
  {
    OFFSET 9.25993 -1.60807 -0.003591
    CHANNELS 3 Zrotation Xrotation Yrotation
    JOINT LeftLeg
    {
      OFFSET 0.056181 -41.8768 -0.046918
      CHANNELS 3 Zrotation Xrotation Yrotation
      JOINT LeftFoot
      {
        OFFSET 0.206009 -42.0177 -0.454554
        CHANNELS 3 Zrotation Xrotation Yrotation
        End Site
        {
          OFFSET 0 -7.69 17.5
        }
      }
    }
  }
  JOINT Spine
  {
    OFFSET 0.055174 14.3087 0.014143
    CHANNELS 3 Zrotation Xrotation Yrotation
    JOINT Spine1
    {
      OFFSET 0.013927 9.70629 0.00545
      CHANNELS 3 Zrotation Xrotation Yrotation
      JOINT Spine2
      {
        OFFSET 0.014023 10.1242 0.014512
        CHANNELS 3 Zrotation Xrotation Yrotation
        JOINT Spine3
        {
          OFFSET 0.012086 9.7191 0.009001
          CHANNELS 3 Zrotation Xrotation Yrotation
          JOINT Neck
          {
            OFFSET 0.131707 10.3859 0.054297
            CHANNELS 3 Zrotation Xrotation Yrotation
            JOINT Head
            {
              OFFSET -0.005552 9.48088 0.122183
              CHANNELS 3 Zrotation Xrotation Yrotation
              End Site
              {
                OFFSET 0 15.95 0
              }
            }
          }
          JOINT RightShoulder
          {
            OFFSET -3.20137 6.92944 0.018295
            CHANNELS 3 Zrotation Xrotation Yrotation
            JOINT RightArm
            {
              OFFSET -12.7595 0.009634 0.00435
              CHANNELS 3 Zrotation Xrotation Yrotation
              JOINT RightForeArm
              {
                OFFSET -26.5076 -0.004773 -0.015002
                CHANNELS 3 Zrotation Xrotation Yrotation
                JOINT RightHand
                {
                  OFFSET -26.002 -5.9e-05 -0.011656
                  CHANNELS 3 Zrotation Xrotation Yrotation
                  JOINT RightHandThumb1
                  {
                    OFFSET -2.48905 0.190105 3.12053
                    CHANNELS 3 Zrotation Xrotation Yrotation
                    JOINT RightHandThumb2
                    {
                      OFFSET -3.68274 0 0
                      CHANNELS 3 Zrotation Xrotation Yrotation
                      JOINT RightHandThumb3
                      {
                        OFFSET -2.55832 0 0
                        CHANNELS 3 Zrotation Xrotation Yrotation
                        End Site
                        {
                          OFFSET -2.194 0 0
                        }
                      }
                    }
                  }
                  JOINT RightInHandIndex
                  {
                    OFFSET -3.22368 0.508421 1.97842
                    CHANNELS 3 Zrotation Xrotation Yrotation
                    JOINT RightHandIndex1
                    {
                      OFFSET -5.21684 -0.091368 0.999158
                      CHANNELS 3 Zrotation Xrotation Yrotation
                      JOINT RightHandIndex2
                      {
                        OFFSET -3.61937 0 0
                        CHANNELS 3 Zrotation Xrotation Yrotation
                        JOINT RightHandIndex3
                        {
                          OFFSET -2.0521 0 0
                          CHANNELS 3 Zrotation Xrotation Yrotation
                          End Site
                          {
                            OFFSET -1.805 0 0
                          }
                        }
                      }
                    }
                  }
                  JOINT RightInHandMiddle
                  {
                    OFFSET -3.38211 0.517263 0.756737
                    CHANNELS 3 Zrotation Xrotation Yrotation
                    JOINT RightHandMiddle1
                    {
                      OFFSET -5.17411 -0.084 0.313895
                      CHANNELS 3 Zrotation Xrotation Yrotation
                      JOINT RightHandMiddle2
                      {
                        OFFSET -3.94947 0 0
                        CHANNELS 3 Zrotation Xrotation Yrotation
                        JOINT RightHandMiddle3
                        {
                          OFFSET -2.47579 0 0
                          CHANNELS 3 Zrotation Xrotation Yrotation
                          End Site
                          {
                            OFFSET -1.975 0 0
                          }
                        }
                      }
                    }
                  }
                  JOINT RightInHandRing
                  {
                    OFFSET -3.36516 0.537895 -0.128947
                    CHANNELS 3 Zrotation Xrotation Yrotation
                    JOINT RightHandRing1
                    {
                      OFFSET -4.63474 -0.022105 -0.478947
                      CHANNELS 3 Zrotation Xrotation Yrotation
                      JOINT RightHandRing2
                      {
                        OFFSET -3.44238 0 0
                        CHANNELS 3 Zrotation Xrotation Yrotation
                        JOINT RightHandRing3
                        {
                          OFFSET -2.3881 0 0
                          CHANNELS 3 Zrotation Xrotation Yrotation
                          End Site
                          {
                            OFFSET -1.857 0 0
                          }
                        }
                      }
                    }
                  }
                  JOINT RightInHandPinky
                  {
                    OFFSET -3.16105 0.469368 -1.20179
                    CHANNELS 3 Zrotation Xrotation Yrotation
                    JOINT RightHandPinky1
                    {
                      OFFSET -4.14105 -0.022105 -1.09053
                      CHANNELS 3 Zrotation Xrotation Yrotation
                      JOINT RightHandPinky2
                      {
                        OFFSET -2.75653 0 0
                        CHANNELS 3 Zrotation Xrotation Yrotation
                        JOINT RightHandPinky3
                        {
                          OFFSET -1.74189 0 0
                          CHANNELS 3 Zrotation Xrotation Yrotation
                          End Site
                          {
                            OFFSET -1.645 0 0
                          }
                        }
                      }
                    }
                  }
                }
              }
            }
          }
          JOINT LeftShoulder
          {
            OFFSET 3.20143 6.91127 -0.000395
            CHANNELS 3 Zrotation Xrotation Yrotation
            JOINT LeftArm
            {
              OFFSET 12.7779 -0.028682 -0.037301
              CHANNELS 3 Zrotation Xrotation Yrotation
              JOINT LeftForeArm
              {
                OFFSET 26.4982 -0.116492 -0.017681
                CHANNELS 3 Zrotation Xrotation Yrotation
                JOINT LeftHand
                {
                  OFFSET 26.0046 -0.058588 -0.01331
                  CHANNELS 3 Zrotation Xrotation Yrotation
                  JOINT LeftHandThumb1
                  {
                    OFFSET 2.48905 0.190105 3.12053
                    CHANNELS 3 Zrotation Xrotation Yrotation
                    JOINT LeftHandThumb2
                    {
                      OFFSET 3.68274 0 0
                      CHANNELS 3 Zrotation Xrotation Yrotation
                      JOINT LeftHandThumb3
                      {
                        OFFSET 2.55832 0 0
                        CHANNELS 3 Zrotation Xrotation Yrotation
                        End Site
                        {
                          OFFSET 2.194 0 0
                        }
                      }
                    }
                  }
                  JOINT LeftInHandIndex
                  {
                    OFFSET 3.22368 0.508421 1.97842
                    CHANNELS 3 Zrotation Xrotation Yrotation
                    JOINT LeftHandIndex1
                    {
                      OFFSET 5.21684 -0.091368 0.999158
                      CHANNELS 3 Zrotation Xrotation Yrotation
                      JOINT LeftHandIndex2
                      {
                        OFFSET 3.61937 0 0
                        CHANNELS 3 Zrotation Xrotation Yrotation
                        JOINT LeftHandIndex3
                        {
                          OFFSET 2.0521 0 0
                          CHANNELS 3 Zrotation Xrotation Yrotation
                          End Site
                          {
                            OFFSET 1.805 0 0
                          }
                        }
                      }
                    }
                  }
                  JOINT LeftInHandMiddle
                  {
                    OFFSET 3.38211 0.517263 0.756737
                    CHANNELS 3 Zrotation Xrotation Yrotation
                    JOINT LeftHandMiddle1
                    {
                      OFFSET 5.17411 -0.084 0.313895
                      CHANNELS 3 Zrotation Xrotation Yrotation
                      JOINT LeftHandMiddle2
                      {
                        OFFSET 3.94947 0 0
                        CHANNELS 3 Zrotation Xrotation Yrotation
                        JOINT LeftHandMiddle3
                        {
                          OFFSET 2.47579 0 0
                          CHANNELS 3 Zrotation Xrotation Yrotation
                          End Site
                          {
                            OFFSET 1.975 0 0
                          }
                        }
                      }
                    }
                  }
                  JOINT LeftInHandRing
                  {
                    OFFSET 3.36516 0.537895 -0.128947
                    CHANNELS 3 Zrotation Xrotation Yrotation
                    JOINT LeftHandRing1
                    {
                      OFFSET 4.63474 -0.022105 -0.478947
                      CHANNELS 3 Zrotation Xrotation Yrotation
                      JOINT LeftHandRing2
                      {
                        OFFSET 3.44238 0 0
                        CHANNELS 3 Zrotation Xrotation Yrotation
                        JOINT LeftHandRing3
                        {
                          OFFSET 2.3881 0 0
                          CHANNELS 3 Zrotation Xrotation Yrotation
                          End Site
                          {
                            OFFSET 1.857 0 0
                          }
                        }
                      }
                    }
                  }
                  JOINT LeftInHandPinky
                  {
                    OFFSET 3.16105 0.469368 -1.20179
                    CHANNELS 3 Zrotation Xrotation Yrotation
                    JOINT LeftHandPinky1
                    {
                      OFFSET 4.14105 -0.022105 -1.09053
                      CHANNELS 3 Zrotation Xrotation Yrotation
                      JOINT LeftHandPinky2
                      {
                        OFFSET 2.75653 0 0
                        CHANNELS 3 Zrotation Xrotation Yrotation
                        JOINT LeftHandPinky3
                        {
                          OFFSET 1.74189 0 0
                          CHANNELS 3 Zrotation Xrotation Yrotation
                          End Site
                          {
                            OFFSET 1.645 0 0
                          }
                        }
                      }
                    }
                  }
                }
              }
            }
          }
        }
      }
    }
  }
}
MOTION
Frames: 3
Frame Time: 0.00833333
7.507336302142043678e+02 -2.224436398796096059e-01 1.242549691698565106e-01 5.302610908398608380e-01 -3.154704998909749314e+00 1.286955941540260495e+00 -3.881925044198357710e+00 -5.924658370145040820e+00 -3.252940940036725959e+00 -8.975935114991090424e-01 1.509763022499892138e+00 -9.237537425044333173e-01 1.961667736191545552e+00 -9.938501751874878609e-02 2.515904605371123370e+00 -2.011867623323803755e+00 -5.120485889519179601e+00 -1.237414280508484898e+00 -1.997792802912411236e+00 -4.995395825872572804e-02 2.706639754846276169e+00 -1.405376782598752428e+00 -9.728127722545178990e-01 -1.842487866407983788e+00 -8.683672574572203207e-01 4.670580697362209932e-01 -1.620038520719349062e+00 -2.497997248882727617e-01 4.562242667856660772e-01 -3.369074433207739916e-01 -3.215613111725851292e-01 -5.931626241074855477e-01 -7.250573254982011218e-01 -9.997087351329358995e-02 4.522091713553161307e-02 -1.326198558263743110e-01 -2.273455292036204445e-01 -4.184728600526232967e-01 4.658250349621018138e-01 -1.660470224786952942e-01 -4.303224267444706319e-01 -1.656709396970039272e+00 -6.520172304498196292e-01 -1.010757570171336051e+00 2.518045486067249650e-02 -3.779405008919150433e+00 -2.931272245486720607e+00 1.164472256907885583e+00 -2.628895629631444208e+01 -4.163899113476465352e+00 -3.012528901075777554e+01 5.245567724971103907e+00 1.312961826569466695e+00 1.120054544856369905e+00 0.000000000000000000e+00 0.000000000000000000e+00 0.000000000000000000e+00 -1.354636815138246494e-14 1.087927998701331695e-15 0.000000000000000000e+00 5.161134203392025713e-15 -1.704066449159412842e-15 0.000000000000000000e+00 -3.371295230410203574e-15 2.542910257981463594e-15 2.833874380519364363e-15 0.000000000000000000e+00 0.000000000000000000e+00 0.000000000000000000e+00 0.000000000000000000e+00 1.071919054428020865e-15 -3.562224568322721276e-15 0.000000000000000000e+00 1.029281850912160551e-15 -5.593580054855476400e-15 -3.371295230410203574e-15 2.542910257981463594e-15 2.833874380519364363e-15 0.000000000000000000e+00 9.002949844196365817e-16 -2.585588804427284707e-15 0.000000000000000000e+00 -3.243656119504707216e-15 -6.146002596563754639e-15 0.000000000000000000e+00 -5.593197837464484737e-16 -3.374158597424770124e-15 -3.371295230410203574e-15 2.542910257981463594e-15 2.833874380519364363e-15 0.000000000000000000e+00 0.000000000000000000e+00 0.000000000000000000e+00 0.000000000000000000e+00 -1.154683174838736991e-15 -5.324622901820561203e-15 0.000000000000000000e+00 -9.054678475718943099e-16 -2.802413053177612543e-15 -3.371295230410203574e-15 2.542910257981463594e-15 2.833874380519364363e-15 0.000000000000000000e+00 0.000000000000000000e+00 0.000000000000000000e+00 0.000000000000000000e+00 -2.653062051733364253e-15 -5.818318700528619326e-15 0.000000000000000000e+00 -5.809214531019563036e-16 5.846212134329611412e-16 -8.083116512880069715e-01 -6.631410674612658873e-01 -2.007130014412255470e+00 2.901412456769693282e+00 -2.094696571852483924e+00 -2.053099942709434522e+00 9.044380532505018166e+00 -9.609231820780205879e+00 -6.808255086501966424e-01 -3.522023773027495253e+01 -7.464511303403916109e+00 -5.522271550795777806e+00 0.000000000000000000e+00 0.000000000000000000e+00 0.000000000000000000e+00 -3.735829899538807285e-15 -1.885314378559785039e-16 0.000000000000000000e+00 -1.997795578362933612e-15 2.724995249228060134e-15 0.000000000000000000e+00 -2.432265731388185611e-16 6.228733919284368292e-16 -1.497175513981567775e-15 0.000000000000000000e+00 0.000000000000000000e+00 0.000000000000000000e+00 0.000000000000000000e+00 -2.607819486663512343e-15 -8.843488599725812373e-15 0.000000000000000000e+00 -5.677497638147458071e-16 -5.693188977978450361e-16 -2.432265731388185611e-16 6.228733919284368292e-16 -1.497175513981567775e-15 0.000000000000000000e+00 2.039212765687997695e-15 -4.080276790699128664e-15 0.000000000000000000e+00 4.663576672406848297e-15 -7.209365393942527106e-15 0.000000000000000000e+00 8.753199435774422015e-16 -4.704707413786081467e-15 -2.432265731388185611e-16 6.228733919284368292e-16 -1.497175513981567775e-15 0.000000000000000000e+00 0.000000000000000000e+00 0.000000000000000000e+00 0.000000000000000000e+00 -1.151472832411944423e-15 -8.944147044499636314e-15 0.000000000000000000e+00 1.180394934556776071e-15 -5.639270834451850212e-15 -2.432265731388185611e-16 6.228733919284368292e-16 -1.497175513981567775e-15 0.000000000000000000e+00 0.000000000000000000e+00 0.000000000000000000e+00 0.000000000000000000e+00 1.875221750742748938e-16 -1.009637557277582817e-14 0.000000000000000000e+00 -1.496765972220161059e-15 -2.351108999654813243e-15
7.507320001428735168e+02 -2.198556769198866945e-01 1.789064706416047534e-01 5.073458313501374439e-01 -3.187336996408458578e+00 1.446389993067872970e+00 -4.041070787058993474e+00 -5.960013686126431232e+00 -3.363512566631748690e+00 -9.174297246722485921e-01 1.551682757410936642e+00 -9.392808201672232515e-01 1.965915658953763634e+00 -1.409479947370042563e-01 2.463668031587658458e+00 -2.141908863410052266e+00 -5.188615295875164790e+00 -1.285721113742380517e+00 -1.993867105835133824e+00 -7.250231958605188320e-02 2.663273229059889946e+00 -1.382426961663078213e+00 -1.004281963946714207e+00 -1.911883191144901240e+00 -8.491713787959006554e-01 5.001206554394643788e-01 -1.582056181437694553e+00 -2.439072576341723142e-01 4.662936426742664286e-01 -3.254867412302275276e-01 -3.117257934948894915e-01 -5.858231653974995679e-01 -7.072039091854402937e-01 -1.016319950960827972e-01 5.458967876508112604e-02 -1.349313253876531504e-01 -2.703887748655042778e-01 -2.722174189295762936e-01 3.310850245644600953e-01 -1.731549545230084419e-01 -4.127763468567955396e-01 -1.741918241324390326e+00 -6.489938602444870197e-01 -1.038488872236922766e+00 6.607034305724990286e-02 -3.909442796177687640e+00 -2.848075552968271751e+00 1.300633799271082802e+00 -2.633402520946268766e+01 -4.233247602750279448e+00 -3.040381470662792651e+01 5.332409228866297646e+00 1.315091704309645504e+00 1.091905104789245629e+00 0.000000000000000000e+00 0.000000000000000000e+00 0.000000000000000000e+00 -1.359479632910081198e-14 1.105569047741768227e-15 0.000000000000000000e+00 5.202891681043717524e-15 -1.710574199406991701e-15 0.000000000000000000e+00 -3.388570943440057522e-15 2.547211832195831302e-15 2.853675568861264163e-15 0.000000000000000000e+00 0.000000000000000000e+00 0.000000000000000000e+00 0.000000000000000000e+00 1.049173544097158357e-15 -3.592140200268018642e-15 0.000000000000000000e+00 1.017915610062657628e-15 -5.693181924825933500e-15 -3.388570943440057522e-15 2.547211832195831302e-15 2.853675568861264163e-15 0.000000000000000000e+00 9.007948223698780932e-16 -2.579915585437446572e-15 0.000000000000000000e+00 -3.250041818044867727e-15 -6.150382234083593652e-15 0.000000000000000000e+00 -5.750571176769412512e-16 -3.441316748736711313e-15 -3.388570943440057522e-15 2.547211832195831302e-15 2.853675568861264163e-15 0.000000000000000000e+00 0.000000000000000000e+00 0.000000000000000000e+00 0.000000000000000000e+00 -1.158005751810993929e-15 -5.381649021602410368e-15 0.000000000000000000e+00 -9.135412636967434277e-16 -2.880844014096126089e-15 -3.388570943440057522e-15 2.547211832195831302e-15 2.853675568861264163e-15 0.000000000000000000e+00 0.000000000000000000e+00 0.000000000000000000e+00 0.000000000000000000e+00 -2.684573881894918686e-15 -5.833516926743242123e-15 0.000000000000000000e+00 -6.004503389976258667e-16 5.334964925808677405e-16 -8.084785101168424637e-01 -6.174339346297004205e-01 -1.983959549635008202e+00 2.804807687236958724e+00 -2.104436367843181888e+00 -1.943712884721939371e+00 8.988849053687895108e+00 -9.770427730930821397e+00 -5.833694809809029103e-01 -3.527249132264246612e+01 -7.828987435293194075e+00 -5.656247265270582858e+00 0.000000000000000000e+00 0.000000000000000000e+00 0.000000000000000000e+00 -3.588836244530917314e-15 -2.073480859554416615e-16 0.000000000000000000e+00 -1.952477693950231384e-15 2.714308150625070564e-15 0.000000000000000000e+00 -2.527829321388272350e-16 6.276266407297940753e-16 -1.522382483784141748e-15 0.000000000000000000e+00 0.000000000000000000e+00 0.000000000000000000e+00 0.000000000000000000e+00 -2.644173705336591027e-15 -8.787866048258541109e-15 0.000000000000000000e+00 -5.408515506505302205e-16 -6.350399592671223523e-16 -2.527829321388272350e-16 6.276266407297940753e-16 -1.522382483784141748e-15 0.000000000000000000e+00 2.036541845608053807e-15 -4.050155018586943077e-15 0.000000000000000000e+00 4.660277586002779974e-15 -7.140234362133719327e-15 0.000000000000000000e+00 8.816313420530147909e-16 -4.695688872648250030e-15 -2.527829321388272350e-16 6.276266407297940753e-16 -1.522382483784141748e-15 0.000000000000000000e+00 0.000000000000000000e+00 0.000000000000000000e+00 0.000000000000000000e+00 -1.182153907598294018e-15 -8.867509397243808063e-15 0.000000000000000000e+00 1.178870168037676681e-15 -5.530322891370867269e-15 -2.527829321388272350e-16 6.276266407297940753e-16 -1.522382483784141748e-15 0.000000000000000000e+00 0.000000000000000000e+00 0.000000000000000000e+00 0.000000000000000000e+00 2.045543381642270193e-16 -1.003819650910138205e-14 0.000000000000000000e+00 -1.538611294486422690e-15 -2.240282734518965725e-15
7.507286098914220247e+02 -2.160861505006188010e-01 2.318964567371462615e-01 4.807019926634255591e-01 -3.208999072031057498e+00 1.583802940626331646e+00 -4.165037440884556297e+00 -5.979164731303167279e+00 -3.442776771134592906e+00 -9.367485798852849266e-01 1.586114903822822164e+00 -9.498345308236317841e-01 1.964695440084379019e+00 -1.777848026310608898e-01 2.408522367159431798e+00 -2.253018880371361998e+00 -5.242807837003952365e+00 -1.313690284391689334e+00 -1.980968346745766606e+00 -8.776213914655275894e-02 2.608172378173856831e+00 -1.354780939921455429e+00 -1.039441741083509285e+00 -1.967794442272253752e+00 -8.305758399074932852e-01 5.270258894777901659e-01 -1.539589948570409872e+00 -2.380448290257866917e-01 4.738018934316540198e-01 -3.135099531622967395e-01 -3.026945000863686119e-01 -5.722675023171297504e-01 -6.868274728821154307e-01 -1.032138898297891433e-01 6.269749199528951156e-02 -1.365826489109415176e-01 -3.200154883674263262e-01 -1.367766592035541962e-01 2.002368689533526869e-01 -1.839548534839746119e-01 -3.961667548412146078e-01 -1.815326900192784532e+00 -6.438192039249766019e-01 -1.060242910368520697e+00 1.035827771970548317e-01 -4.011704835005759584e+00 -2.757842442830521712e+00 1.431381958611579241e+00 -2.601530484716135305e+01 -4.302559213734467924e+00 -3.030021968591368164e+01 5.397022921867766776e+00 1.315656703049210341e+00 1.055751226427050771e+00 0.000000000000000000e+00 0.000000000000000000e+00 0.000000000000000000e+00 -1.356518276829844474e-14 1.117946746702611061e-15 0.000000000000000000e+00 5.259876644774121908e-15 -1.714866965859059222e-15 0.000000000000000000e+00 -3.393433817717435018e-15 2.533998852286394183e-15 2.857766325108993521e-15 0.000000000000000000e+00 0.000000000000000000e+00 0.000000000000000000e+00 0.000000000000000000e+00 1.008100165092861474e-15 -3.596803028449459810e-15 0.000000000000000000e+00 9.984870721431178616e-16 -5.812801788097466074e-15 -3.393433817717435018e-15 2.533998852286394183e-15 2.857766325108993521e-15 0.000000000000000000e+00 9.038992381138015222e-16 -2.561329300792107341e-15 0.000000000000000000e+00 -3.237236126320746061e-15 -6.099214763183773877e-15 0.000000000000000000e+00 -6.058572156120106718e-16 -3.529147067623243248e-15 -3.393433817717435018e-15 2.533998852286394183e-15 2.857766325108993521e-15 0.000000000000000000e+00 0.000000000000000000e+00 0.000000000000000000e+00 0.000000000000000000e+00 -1.162977227597823409e-15 -5.422457574539925081e-15 0.000000000000000000e+00 -9.232847537771959980e-16 -2.978326274958017120e-15 -3.393433817717435018e-15 2.533998852286394183e-15 2.857766325108993521e-15 0.000000000000000000e+00 0.000000000000000000e+00 0.000000000000000000e+00 0.000000000000000000e+00 -2.721110638492031280e-15 -5.805136260246817400e-15 0.000000000000000000e+00 -6.149594808113611241e-16 4.559072241392190933e-16 -8.067688418024347996e-01 -5.713688006917021500e-01 -1.952744800702735706e+00 2.691028518826121374e+00 -2.104054351288421998e+00 -1.819158367967585122e+00 8.892116903975868070e+00 -9.905598132071602890e+00 -4.702839346921262598e-01 -3.515878242570943968e+01 -8.195110478465950976e+00 -5.781816893017020398e+00 0.000000000000000000e+00 0.000000000000000000e+00 0.000000000000000000e+00 -3.341602900546833623e-15 -2.329807038711446422e-16 0.000000000000000000e+00 -1.864864232951899879e-15 2.675214575558828970e-15 0.000000000000000000e+00 -2.588604292607667792e-16 6.218057976807460865e-16 -1.548295854300718087e-15 0.000000000000000000e+00 0.000000000000000000e+00 0.000000000000000000e+00 0.000000000000000000e+00 -2.697291587032621809e-15 -8.616907390493133032e-15 0.000000000000000000e+00 -5.013818217463261777e-16 -6.654357814463397800e-16 -2.588604292607667792e-16 6.218057976807460865e-16 -1.548295854300718087e-15 0.000000000000000000e+00 2.019777136048511690e-15 -3.971374168374186586e-15 0.000000000000000000e+00 4.598919615419286930e-15 -6.966284731127545717e-15 0.000000000000000000e+00 8.796275285282154133e-16 -4.616336420494899227e-15 -2.588604292607667792e-16 6.218057976807460865e-16 -1.548295854300718087e-15 0.000000000000000000e+00 0.000000000000000000e+00 0.000000000000000000e+00 0.000000000000000000e+00 -1.239120174827214292e-15 -8.670592149554419761e-15 0.000000000000000000e+00 1.162220126398978312e-15 -5.331978576904796732e-15 -2.588604292607667792e-16 6.218057976807460865e-16 -1.548295854300718087e-15 0.000000000000000000e+00 0.000000000000000000e+00 0.000000000000000000e+00 0.000000000000000000e+00 2.181265115413787358e-16 -9.871620900584981280e-15 0.000000000000000000e+00 -1.596655242171593915e-15 -2.076812438773940027e-15
